<?xml version="1.0" encoding="UTF-8"?>
<svg width="54px" height="54px" viewBox="0 0 54 54" version="1.1" xmlns="http://www.w3.org/2000/svg" xmlns:xlink="http://www.w3.org/1999/xlink">
    <!-- Generator: Sketch 52.6 (67491) - http://www.bohemiancoding.com/sketch -->
    <title>logo-mobile</title>
    <desc>Created with Sketch.</desc>
    <g id="Page-1" stroke="none" stroke-width="1" fill="none" fill-rule="evenodd">
        <g id="logo-mobile" transform="translate(2.000000, 2.000000)">
            <rect id="Rectangle-6" stroke="#1A7EF1" stroke-width="4" x="0" y="0" width="50" height="50"></rect>
            <polygon id="Path" fill="#000000" points="23.8671875 4 23.8671875 46.1074219 16.4608128 46.1074219 12.0651596 26.9653203 12.0651596 46.1074219 5 46.1074219 5 4 12.0651596 4 16.8020279 22.9600436 16.8020279 4"></polygon>
            <path d="M46.2636719,22.350414 L37.6897966,22.350414 L37.6897966,15.3574184 C37.6897966,13.323984 37.5981528,12.055173 37.4148624,11.5509474 C37.231572,11.0467218 36.8276603,10.7946128 36.2031152,10.7946128 C35.4971077,10.7946128 35.0490712,11.1004499 34.8589922,11.7121335 C34.6689133,12.323817 34.5738752,13.6463561 34.5738752,15.6797905 L34.5738752,34.3277788 C34.5738752,36.2785533 34.6689133,37.5514972 34.8589922,38.1466488 C35.0490712,38.7418003 35.4767424,39.0393716 36.1420187,39.0393716 C36.7801409,39.0393716 37.1976294,38.7418003 37.3944969,38.1466488 C37.5913644,37.5514972 37.6897966,36.1545653 37.6897966,33.955811 L37.6897966,28.9218461 L46.2636719,28.9218461 L46.2636719,30.484111 C46.2636719,34.6336398 46.0226825,37.5762894 45.5406966,39.312148 C45.0587108,41.0480067 43.9929269,42.5689267 42.3433132,43.8749537 C40.6936995,45.1809807 38.6605642,45.8339844 36.2438462,45.8339844 C33.7320887,45.8339844 31.661617,45.2801711 30.0323689,44.172528 C28.4031208,43.0648848 27.3237601,41.531566 26.7942545,39.5725255 C26.2647488,37.6134851 26,34.6667025 26,30.7320896 L26,19.0027033 C26,16.1096056 26.0814612,13.9398148 26.244386,12.4932659 C26.4073108,11.0467171 26.8926837,9.65391804 27.7005192,8.31482708 C28.5083547,6.97573612 29.628446,5.92183774 31.0608266,5.15310034 C32.4932072,4.38436294 34.1394019,4 35.9994602,4 C38.5247947,4 40.6088433,4.59514261 42.2516685,5.78544569 C43.8944937,6.97574876 44.9738543,8.45947236 45.4897829,10.236661 C46.0057115,12.0138496 46.2636719,14.778783 46.2636719,18.5315441 L46.2636719,22.350414 Z" id="Path" fill="#1A7EF1"></path>
        </g>
    </g>
</svg>