<?xml version="1.0" encoding="UTF-8"?>
<svg width="220px" height="43px" viewBox="0 0 220 43" version="1.1" xmlns="http://www.w3.org/2000/svg" xmlns:xlink="http://www.w3.org/1999/xlink">
    <!-- Generator: Sketch 52.6 (67491) - http://www.bohemiancoding.com/sketch -->
    <title>Group</title>
    <desc>Created with Sketch.</desc>
    <g id="Page-1" stroke="none" stroke-width="1" fill="none" fill-rule="evenodd">
        <g id="Group">
            <path d="M24.2636719,0.892578125 L24.2636719,42 L14.8945312,42 L9.33398438,23.3125 L9.33398438,42 L0.396484375,42 L0.396484375,0.892578125 L9.33398438,0.892578125 L15.3261719,19.4023438 L15.3261719,0.892578125 L24.2636719,0.892578125 Z M51.4824219,25.75 L38.203125,25.75 L38.203125,33.0371094 C38.203125,34.5605545 38.3131499,35.5423155 38.5332031,35.9824219 C38.7532563,36.4225282 39.1764292,36.6425781 39.8027344,36.6425781 C40.5813841,36.6425781 41.1018867,36.3505889 41.3642578,35.7666016 C41.6266289,35.1826143 41.7578125,34.0527428 41.7578125,32.3769531 L41.7578125,27.9335938 L51.4824219,27.9335938 L51.4824219,30.421875 C51.4824219,32.5039167 51.3512383,34.10351 51.0888672,35.2207031 C50.8264961,36.3378962 50.2128954,37.5312437 49.2480469,38.8007812 C48.2831983,40.0703188 47.0602288,41.0224578 45.5791016,41.6572266 C44.0979744,42.2919954 42.2402455,42.609375 40.0058594,42.609375 C37.8391819,42.609375 35.9264406,42.2962271 34.2675781,41.6699219 C32.6087157,41.0436167 31.3180385,40.1845758 30.3955078,39.0927734 C29.4729772,38.0009711 28.8339862,36.7991602 28.4785156,35.4873047 C28.1230451,34.1754492 27.9453125,32.2669396 27.9453125,29.7617188 L27.9453125,19.9355469 C27.9453125,16.9902196 28.343095,14.6670007 29.1386719,12.9658203 C29.9342488,11.2646399 31.2376212,9.96126755 33.0488281,9.05566406 C34.8600351,8.15006058 36.9420455,7.69726562 39.2949219,7.69726562 C42.1725404,7.69726562 44.5465401,8.2431586 46.4169922,9.33496094 C48.2874442,10.4267633 49.5992801,11.8740144 50.3525391,13.6767578 C51.105798,15.4795012 51.4824219,18.0143066 51.4824219,21.28125 L51.4824219,25.75 Z M41.1992188,20.265625 L41.1992188,17.8027344 C41.1992188,16.0592361 41.1061207,14.9335963 40.9199219,14.4257812 C40.733723,13.9179662 40.3528675,13.6640625 39.7773438,13.6640625 C39.0664027,13.6640625 38.6263029,13.8798807 38.4570312,14.3115234 C38.2877596,14.7431662 38.203125,15.9068916 38.203125,17.8027344 L38.203125,20.265625 L41.1992188,20.265625 Z M87.96875,8.30664062 L83.8808594,42 L72.734375,42 C72.124997,37.8866982 71.42253,32.4700857 70.6269531,25.75 C70.3561184,28.6953272 69.9752629,31.6744641 69.484375,34.6875 L68.3417969,42 L57.1953125,42 L52.8535156,8.30664062 L61.6894531,8.30664062 C61.7571618,9.18685336 62.501946,15.6106172 63.9238281,27.578125 C64.0253911,26.3593689 64.7871023,19.935605 66.2089844,8.30664062 L74.7148438,8.30664062 L76.796875,27.578125 C77.1184912,21.9583052 77.8971292,15.5345413 79.1328125,8.30664062 L87.96875,8.30664062 Z" id="NewCOSVE" fill="#000000"></path>
            <path d="M114.908203,18.8183594 L104.21875,18.8183594 L104.21875,11.6582031 C104.21875,9.57616146 104.104493,8.27702081 103.875977,7.76074219 C103.64746,7.24446356 103.143884,6.98632812 102.365234,6.98632812 C101.485022,6.98632812 100.926433,7.29947604 100.689453,7.92578125 C100.452473,8.55208646 100.333984,9.90623959 100.333984,11.9882812 L100.333984,31.0820312 C100.333984,33.0794371 100.452473,34.3828095 100.689453,34.9921875 C100.926433,35.6015655 101.459631,35.90625 102.289062,35.90625 C103.084639,35.90625 103.605142,35.6015655 103.850586,34.9921875 C104.09603,34.3828095 104.21875,32.9524852 104.21875,30.7011719 L104.21875,25.546875 L114.908203,25.546875 L114.908203,27.1464844 C114.908203,31.3952035 114.60775,34.4081942 114.006836,36.1855469 C113.405921,37.9628995 112.077159,39.5201756 110.020508,40.8574219 C107.963857,42.1946681 105.429052,42.8632812 102.416016,42.8632812 C99.2844896,42.8632812 96.7031352,42.2962296 94.671875,41.1621094 C92.6406148,40.0279891 91.2949252,38.4580178 90.6347656,36.4521484 C89.9746061,34.446279 89.6445312,31.4290566 89.6445312,27.4003906 L89.6445312,15.390625 C89.6445312,12.4283706 89.7460927,10.2067131 89.9492188,8.72558594 C90.1523448,7.24445874 90.7574819,5.81836623 91.7646484,4.44726562 C92.7718149,3.07616502 94.1682853,1.99707425 95.9541016,1.20996094 C97.7399178,0.422847627 99.7923061,0.029296875 102.111328,0.029296875 C105.259781,0.029296875 107.858063,0.638665781 109.90625,1.85742188 C111.954437,3.07617797 113.300127,4.59536851 113.943359,6.41503906 C114.586592,8.23470962 114.908203,11.065736 114.908203,14.9082031 L114.908203,18.8183594 Z" id="Path-Copy" fill="#8036CA"></path>
            <path d="M143.167969,24.9628906 C143.167969,29.0931196 143.070639,32.017244 142.875977,33.7353516 C142.681314,35.4534591 142.071945,37.0234304 141.047852,38.4453125 C140.023758,39.8671946 138.639983,40.9589806 136.896484,41.7207031 C135.152986,42.4824257 133.121756,42.8632812 130.802734,42.8632812 C128.602203,42.8632812 126.625985,42.5035843 124.874023,41.7841797 C123.122062,41.064775 121.712896,39.9856843 120.646484,38.546875 C119.580073,37.1080657 118.945314,35.5423262 118.742188,33.8496094 C118.539061,32.1568926 118.4375,29.1946826 118.4375,24.9628906 L118.4375,17.9296875 C118.4375,13.7994585 118.53483,10.8753341 118.729492,9.15722656 C118.924155,7.43911901 119.533524,5.86914773 120.557617,4.44726562 C121.581711,3.02538352 122.965486,1.93359756 124.708984,1.171875 C126.452483,0.410152441 128.483712,0.029296875 130.802734,0.029296875 C133.003266,0.029296875 134.979483,0.388993799 136.731445,1.10839844 C138.483407,1.82780308 139.892573,2.90689385 140.958984,4.34570312 C142.025396,5.7845124 142.660155,7.35025195 142.863281,9.04296875 C143.066407,10.7356855 143.167969,13.6978955 143.167969,17.9296875 L143.167969,24.9628906 Z" id="Path" fill="#8036CA"></path>
            <path d="M132.478516,11.4550781 C132.478516,9.54230814 132.372722,8.3193386 132.161133,7.78613281 C131.949543,7.25292702 131.513675,6.98632812 130.853516,6.98632812 C130.294919,6.98632812 129.867515,7.20214628 129.571289,7.63378906 C129.275064,8.06543185 129.126953,9.33918213 129.126953,11.4550781 L129.126953,30.6503906 C129.126953,33.0371213 129.224283,34.5097628 129.418945,35.0683594 C129.613608,35.6269559 130.066403,35.90625 130.777344,35.90625 C131.505212,35.90625 131.970702,35.5846386 132.173828,34.9414062 C132.376954,34.2981739 132.478516,32.7662881 132.478516,30.3457031 L132.478516,11.4550781 Z" id="Path" fill="#FFFFFF"></path>
            <path d="M169.802734,13.3339844 L159.875,13.3339844 L159.875,10.2871094 C159.875,8.86522727 159.748048,7.95963736 159.494141,7.5703125 C159.240233,7.18098764 158.81706,6.98632812 158.224609,6.98632812 C157.581377,6.98632812 157.094728,7.24869529 156.764648,7.7734375 C156.434569,8.29817971 156.269531,9.09374467 156.269531,10.1601562 C156.269531,11.5312569 156.455727,12.5637986 156.828125,13.2578125 C157.183596,13.9518264 158.190747,14.7897086 159.849609,15.7714844 C164.606144,18.5983214 167.602207,20.9173087 168.837891,22.7285156 C170.073574,24.5397226 170.691406,27.4596153 170.691406,31.4882813 C170.691406,34.4166813 170.348636,36.5748629 169.663086,37.9628906 C168.977536,39.3509184 167.653005,40.5146437 165.689453,41.4541016 C163.725902,42.3935594 161.440768,42.8632812 158.833984,42.8632812 C155.973293,42.8632812 153.531586,42.32162 151.508789,41.2382812 C149.485992,40.1549425 148.161461,38.775399 147.535156,37.0996094 C146.908851,35.4238197 146.595703,33.0455883 146.595703,29.9648438 L146.595703,27.2734375 L156.523438,27.2734375 L156.523438,32.2753906 C156.523438,33.8157629 156.663085,34.8059874 156.942383,35.2460938 C157.221681,35.6862001 157.716793,35.90625 158.427734,35.90625 C159.138675,35.90625 159.667641,35.6269559 160.014648,35.0683594 C160.361655,34.5097628 160.535156,33.680344 160.535156,32.5800781 C160.535156,30.1594931 160.205081,28.5768266 159.544922,27.8320312 C158.867835,27.0872359 157.200534,25.8431077 154.542969,24.0996094 C151.885403,22.3391839 150.125004,21.0612019 149.261719,20.265625 C148.398433,19.4700481 147.683271,18.3697987 147.116211,16.9648438 C146.549151,15.5598888 146.265625,13.7656359 146.265625,11.5820312 C146.265625,8.43357801 146.667639,6.1315177 147.47168,4.67578125 C148.27572,3.2200448 149.574861,2.08170983 151.369141,1.26074219 C153.16342,0.439774541 155.330065,0.029296875 157.869141,0.029296875 C160.645196,0.029296875 163.010732,0.477860098 164.96582,1.375 C166.920908,2.2721399 168.215817,3.40201142 168.850586,4.76464844 C169.485355,6.12728546 169.802734,8.44204096 169.802734,11.7089844 L169.802734,13.3339844 Z" id="Path" fill="#8036CA"></path>
            <path d="M199.433594,0.892578125 L194,42 L177.775391,42 L171.605469,0.892578125 L182.878906,0.892578125 C184.182298,12.2168535 185.113278,21.7890234 185.671875,29.609375 C186.230472,21.7043876 186.81445,14.6797182 187.423828,8.53515625 L188.160156,0.892578125 L199.433594,0.892578125 Z" id="Path" fill="#8036CA"></path>
            <polygon id="Path" fill="#8036CA" points="201.261719 0.892578125 219.085938 0.892578125 219.085938 9.11914062 211.951172 9.11914062 211.951172 16.9140625 218.628906 16.9140625 218.628906 24.734375 211.951172 24.734375 211.951172 33.7734375 219.796875 33.7734375 219.796875 42 201.261719 42"></polygon>
        </g>
    </g>
</svg>