<?xml version="1.0" encoding="UTF-8"?>
<svg width="36px" height="36px" viewBox="0 0 36 36" version="1.1" xmlns="http://www.w3.org/2000/svg" xmlns:xlink="http://www.w3.org/1999/xlink">
    <!-- Generator: Sketch 52.6 (67491) - http://www.bohemiancoding.com/sketch -->
    <title>logo-mobile copy</title>
    <desc>Created with Sketch.</desc>
    <g id="Page-1" stroke="none" stroke-width="1" fill="none" fill-rule="evenodd">
        <g id="logo-mobile-copy" transform="translate(2.000000, 2.000000)">
            <rect id="Rectangle-6" stroke="#1A7EF1" stroke-width="4" fill="#FFFFFF" x="0" y="0" width="32" height="32"></rect>
            <polygon id="Path" fill="#000000" points="15.275 2.56 15.275 29.50875 10.5349202 29.50875 7.72170213 17.257805 7.72170213 29.50875 3.2 29.50875 3.2 2.56 7.72170213 2.56 10.7532979 14.6944279 10.7532979 2.56"></polygon>
            <path d="M29.60875,14.304265 L24.1214698,14.304265 L24.1214698,9.82874778 C24.1214698,8.52734975 24.0628178,7.71531072 23.9455119,7.39260633 C23.8282061,7.06990194 23.5697026,6.90855216 23.1699937,6.90855216 C22.7181489,6.90855216 22.4314055,7.10428796 22.309755,7.49576541 C22.1881045,7.88724287 22.1272802,8.73366792 22.1272802,10.0350659 L22.1272802,21.9697785 C22.1272802,23.2182741 22.1881045,24.0329582 22.309755,24.4138552 C22.4314055,24.7947522 22.7051151,24.9851978 23.130892,24.9851978 C23.5392901,24.9851978 23.8064828,24.7947522 23.932478,24.4138552 C24.0584732,24.0329582 24.1214698,23.1389218 24.1214698,21.731719 L24.1214698,18.5099815 L29.60875,18.5099815 L29.60875,19.5098311 C29.60875,22.1655295 29.4545168,24.0488252 29.1460459,25.1597747 C28.8375749,26.2707243 28.1554732,27.2441131 27.0997205,28.0799704 C26.0439677,28.9158276 24.7427611,29.33375 23.1960616,29.33375 C21.5885368,29.33375 20.2634349,28.9793095 19.2207161,28.2704179 C18.1779973,27.5615263 17.4872065,26.5802023 17.1483229,25.3264163 C16.8094393,24.0726304 16.64,22.1866896 16.64,19.6685373 L16.64,12.1617301 C16.64,10.3101476 16.6921352,8.92148149 16.796407,7.9956902 C16.9006789,7.06989892 17.2113176,6.17850755 17.7283323,5.32148933 C18.245347,4.46447112 18.9622054,3.78997616 19.878929,3.29798422 C20.7956526,2.80599228 21.8492172,2.56 23.0396545,2.56 C24.6558686,2.56 25.9896597,2.94089127 27.0410678,3.70268524 C28.0924759,4.46447921 28.7832668,5.41406231 29.1134611,6.55146303 C29.4436553,7.68886374 29.60875,9.45842111 29.60875,11.8601882 L29.60875,14.304265 Z" id="Path" fill="#1A7EF1"></path>
        </g>
    </g>
</svg>